# xmcd CD database file
#
# Track frame offsets:
#	150
#	19645
#	50307
#	60130
#	74352
#	81790
#	90785
#	132712
#	149430
#	157012
#	176392
#	186065
#	194980
#	201947
#
# Disc length: 2884 seconds
#
# Revision: 0
# Processed by: cddbd v1.5.1PL2 Copyright (c) Steve Scherf et al.
# Submitted via: CDex 1.51
#
DISCID=c10b420e
DTITLE=Chicago Underground Duo - axis and alignment
DYEAR=2002
DGENRE=Jazz
TTITLE0=Micro Exit
TTITLE1=Lifelines
TTITLE2=Particle and Transfiguration
TTITLE3=Exponent Red
TTITLE4=Average Assumptions and Misunderstandings
TTITLE5=Lem
TTITLE6=Two Concepts for the Storage of Light
TTITLE7=Memoirs of a Space Traveler
TTITLE8=Rotation
TTITLE9=Access and Enlightenment
TTITLE10=Noon
TTITLE11=Late Signal
TTITLE12=Elec_tic
TTITLE13=Hot Balls and Concentrics
EXTD=YEAR: 2002
EXTT0=
EXTT1=
EXTT2=
EXTT3=
EXTT4=
EXTT5=
EXTT6=
EXTT7=
EXTT8=
EXTT9=
EXTT10=
EXTT11=
EXTT12=
EXTT13=
PLAYORDER=
